<svg width="336" height="203" viewBox="0 0 336 203" fill="none" xmlns="http://www.w3.org/2000/svg">
<rect width="336" height="202.154" transform="translate(0 0.666504)" fill="#FFD4D0"/>
<g clip-path="url(#clip0_1_536)">
<path d="M146.282 129.935H146.238C146.01 129.936 145.781 129.922 145.555 129.892C144.169 129.724 142.893 129.055 141.967 128.01C141.041 126.966 140.53 125.618 140.53 124.221C140.53 122.825 141.041 121.477 141.967 120.432C142.893 119.387 144.169 118.718 145.555 118.551V106.584H125.832V135.729H139.281C139.389 135.397 139.488 135.058 139.604 134.726C140.093 133.317 141.277 132.665 142.46 132.665C144.007 132.665 145.553 133.774 145.553 135.729H150.161V133.803C150.159 132.776 149.75 131.791 149.022 131.065C148.295 130.34 147.309 129.933 146.282 129.935ZM140.408 117.999L140.102 118.413L140.064 118.457C137.227 122.196 135.692 126.763 135.694 131.458V133.456C134.623 133.456 133.574 133.155 132.667 132.588C131.759 132.02 131.029 131.208 130.56 130.245C130.091 129.282 129.902 128.207 130.015 127.142C130.128 126.077 130.537 125.065 131.198 124.221L131.285 124.113C132.71 122.243 133.816 120.15 134.558 117.918C135.308 115.692 135.691 113.359 135.692 111.01V109.067C136.73 109.067 137.748 109.35 138.638 109.886C139.527 110.422 140.254 111.19 140.739 112.109C141.225 113.027 141.451 114.06 141.393 115.097C141.336 116.134 140.997 117.136 140.412 117.995L140.408 117.999Z" fill="#FC3314"/>
<path d="M82.3554 30.6666H72.9592V58.9986H82.3554V53.7611C82.3554 53.7611 78.9864 52.2197 77.7911 47.2845C77.7911 47.2845 82.7621 45.8564 85.4429 51.9466C85.3857 54.0763 85.0038 56.4198 84.1656 59.0007H91.7483C91.7483 59.0007 95.6362 43.1535 82.3554 30.6666ZM77.5095 45.6978H77.503C77.2085 43.336 77.3898 40.3405 78.4675 36.5755C78.4675 36.5755 80.4891 37.9722 82.3511 40.8101C83.7873 42.9775 84.751 45.4234 85.1796 47.9883C85.0167 47.8156 81.9239 44.5255 77.5095 45.6978Z" fill="#FC3314"/>
<path d="M121.134 39.5266V35.9742C121.134 35.2772 120.997 34.587 120.731 33.943C120.464 33.299 120.074 32.7138 119.581 32.2209C119.089 31.728 118.504 31.3371 117.86 31.0704C117.217 30.8037 116.527 30.6665 115.83 30.6666H101.272V58.9986H115.836C116.532 58.9987 117.222 58.8616 117.866 58.5949C118.509 58.3283 119.094 57.9374 119.586 57.4446C120.079 56.9519 120.469 56.3668 120.736 55.7229C121.002 55.0791 121.139 54.389 121.139 53.6921V50.1396C121.139 49.4427 121.002 48.7526 120.736 48.1088C120.469 47.4649 120.079 46.8798 119.586 46.3871C119.094 45.8943 118.509 45.5034 117.866 45.2368C117.222 44.9702 116.532 44.833 115.836 44.8331C117.242 44.832 118.589 44.2724 119.583 43.2773C120.576 42.2822 121.134 40.9332 121.134 39.5266ZM117.308 50.5908V51.0917C117.309 51.2837 117.272 51.4738 117.198 51.6513C117.125 51.8287 117.018 51.99 116.882 52.1257C116.747 52.2614 116.585 52.369 116.408 52.4422C116.231 52.5154 116.041 52.5528 115.849 52.5522C115.181 52.5522 114.541 52.8175 114.069 53.2898C113.597 53.7621 113.332 54.4026 113.332 55.0705V56.7976H110.802V47.671H114.39C114.774 47.6703 115.153 47.7453 115.508 47.8918C115.862 48.0383 116.184 48.2533 116.455 48.5246C116.726 48.7959 116.941 49.118 117.088 49.4726C117.234 49.8272 117.309 50.2072 117.308 50.5908ZM117.308 39.7145C117.306 40.4877 116.998 41.2287 116.451 41.775C115.904 42.3213 115.163 42.6284 114.39 42.6289H110.802V35.3967L113.332 32.8665V35.2348C113.332 35.9026 113.598 36.543 114.069 37.0152C114.541 37.4874 115.181 37.7528 115.849 37.7531C116.041 37.7526 116.231 37.7899 116.408 37.863C116.585 37.9362 116.746 38.0436 116.882 38.1792C117.017 38.3148 117.125 38.476 117.198 38.6533C117.271 38.8306 117.309 39.0207 117.308 39.2125V39.7145Z" fill="#FC3314"/>
<path d="M83.6082 69.4873V74.267C86.1426 76.7336 87.8305 79.9406 88.4293 83.4271C87.7746 83.5795 87.1045 83.6552 86.4324 83.6527C84.4335 83.6529 82.4907 82.9911 80.9071 81.7705C79.3235 80.5499 78.1881 78.8392 77.6781 76.9052C78.3742 74.1271 79.769 71.5735 81.73 69.4873H72.5V97.8193H82.2489V93.0384C79.9435 90.7951 78.333 87.9345 77.6102 84.7991C79.696 84.2126 81.9228 84.3939 83.8863 85.3101C85.8499 86.2264 87.42 87.8168 88.3117 89.7926C87.6773 92.8018 86.2282 95.5786 84.1228 97.8193H93.3517V69.4873H83.6082Z" fill="#FC3314"/>
<path d="M170.556 30.6666H158.008V58.9986H170.556C171.469 58.9984 172.373 58.8183 173.217 58.4684C174.06 58.1185 174.827 57.6057 175.472 56.9593C176.118 56.313 176.629 55.5457 176.978 54.7014C177.327 53.857 177.507 52.9521 177.506 52.0384V37.6257C177.507 36.7121 177.327 35.8074 176.978 34.9633C176.629 34.1191 176.117 33.352 175.471 32.7058C174.826 32.0596 174.06 31.5469 173.216 31.197C172.373 30.8471 171.469 30.6669 170.556 30.6666ZM173.192 44.9659C173.194 46.2905 172.71 47.5697 171.833 48.5615C170.844 49.6895 170.243 51.1057 170.243 52.6094V56.8008H167.762V35.1657C168.625 35.1631 169.476 35.3694 170.243 35.767C171.132 36.2228 171.878 36.9159 172.399 37.7695C172.919 38.623 173.194 39.604 173.192 40.6039V44.9659Z" fill="#FC3314"/>
<path d="M148.602 36.2408V30.6666H129.63V58.9986H148.602V44.8331H145.885C145.281 44.833 144.683 44.9519 144.124 45.1832C143.566 45.4144 143.059 45.7534 142.632 46.1809C142.204 46.6083 141.866 47.1157 141.634 47.6742C141.403 48.2327 141.284 48.8313 141.284 49.4358L142.875 53.4935C143.02 53.861 143.072 54.2584 143.028 54.6509C142.984 55.0434 142.845 55.4193 142.623 55.7457C142.401 56.0721 142.102 56.3393 141.753 56.5239C141.404 56.7086 141.015 56.8051 140.621 56.8052H139.381V32.8665H141.283V40.4226L148.602 36.2408Z" fill="#FC3314"/>
<path d="M197.516 113.67V113.418C197.516 113.285 197.509 113.146 197.496 113.014C197.244 110.208 193.005 110.502 193.005 113.312V116.573C193.005 116.931 193.09 117.284 193.254 117.602C193.417 117.92 193.654 118.195 193.945 118.403C197.727 121.075 200.52 124.922 201.888 129.347L195.515 135.725H182.689V125.815H185.194C185.943 125.816 186.66 126.114 187.189 126.643C187.718 127.173 188.016 127.891 188.016 128.639V128.891C188.016 129.03 188.023 129.163 188.036 129.302C188.287 132.099 192.52 131.807 192.52 128.997V125.736C192.522 125.379 192.437 125.028 192.275 124.711C192.113 124.393 191.877 124.12 191.587 123.912C187.736 121.187 184.911 117.246 183.564 112.723L189.698 106.585H202.836V116.496H200.338C199.967 116.496 199.6 116.423 199.258 116.281C198.915 116.139 198.604 115.931 198.342 115.668C198.08 115.406 197.872 115.094 197.73 114.751C197.588 114.408 197.516 114.041 197.516 113.67Z" fill="#FC3314"/>
<path d="M203.198 40.0329H205.563V30.6666H186.521V58.9986H205.563V49.6323H203.198C202.848 49.6323 202.5 49.7015 202.177 49.8359C201.853 49.9704 201.558 50.1674 201.311 50.4158C201.063 50.6641 200.867 50.9589 200.733 51.2833C200.599 51.6076 200.531 51.9552 200.532 52.3061V52.5425C200.532 53.673 200.083 54.7572 199.284 55.5566C198.485 56.3561 197.401 56.8052 196.271 56.8052V46.6034H204.657V44.4046C204.657 43.8214 204.425 43.2622 204.013 42.8498C203.601 42.4375 203.042 42.2058 202.459 42.2058H201.622C201.333 42.206 201.047 42.2633 200.78 42.3745C200.514 42.4856 200.271 42.6484 200.068 42.8535C199.138 43.785 197.946 44.4089 196.63 44.4089H196.271V32.8665C197.401 32.8665 198.485 33.3156 199.284 34.115C200.083 34.9144 200.532 35.9987 200.532 37.1292V37.3645C200.531 37.715 200.6 38.062 200.734 38.3858C200.868 38.7096 201.065 39.0039 201.312 39.2517C201.56 39.4995 201.854 39.696 202.178 39.8301C202.501 39.9641 202.848 40.033 203.198 40.0329Z" fill="#FC3314"/>
<path d="M231.475 40.0329H233.84V30.6666H214.8V58.9986H224.55V56.8753C224.549 56.6641 224.465 56.4617 224.316 56.3123C224.167 56.163 223.965 56.079 223.754 56.0787C221.243 56.0787 219.033 54.1929 218.857 51.6811C218.811 51.0324 218.899 50.3811 219.115 49.7679C219.332 49.1546 219.672 48.5925 220.115 48.1166C220.558 47.6407 221.094 47.2611 221.69 47.0015C222.286 46.7419 222.929 46.6079 223.579 46.6077H224.55H232.935V44.4046C232.935 44.1158 232.878 43.8297 232.768 43.5629C232.657 43.2961 232.495 43.0536 232.291 42.8494C232.087 42.6452 231.844 42.4833 231.578 42.3729C231.311 42.2624 231.025 42.2056 230.736 42.2058H229.899C229.611 42.206 229.325 42.2634 229.058 42.3745C228.791 42.4857 228.549 42.6484 228.346 42.8535C227.415 43.785 226.224 44.4089 224.908 44.4089H224.55V38.6555C224.55 33.3739 220.203 32.8665 220.203 32.8665H224.549C225.678 32.8665 226.762 33.3156 227.561 34.115C228.36 34.9144 228.809 35.9987 228.809 37.1292V37.3645C228.809 38.0722 229.09 38.7509 229.59 39.2513C230.09 39.7518 230.768 40.0329 231.475 40.0329Z" fill="#FC3314"/>
<path d="M259.954 40.0329H262.319V30.6666H243.277V58.9986H262.319V45.6049H254.167V47.5771C254.167 48.496 254.532 49.3774 255.182 50.0272C255.831 50.677 256.712 51.042 257.63 51.042C258.393 51.042 259.125 51.3454 259.665 51.8852C260.204 52.4251 260.507 53.1574 260.507 53.9209C260.507 54.6844 260.204 55.4167 259.665 55.9566C259.125 56.4965 258.393 56.7998 257.63 56.7998H253.027V32.8665C254.157 32.8665 255.241 33.3156 256.04 34.115C256.838 34.9144 257.287 35.9987 257.287 37.1292V37.3645C257.287 38.0722 257.568 38.7509 258.068 39.2513C258.568 39.7518 259.247 40.0329 259.954 40.0329Z" fill="#FC3314"/>
<path d="M115.679 69.4873H103.421V75.3163C103.421 75.9813 103.685 76.6191 104.155 77.0893C104.625 77.5596 105.263 77.8238 105.927 77.8238V97.8193H118.315C114.39 94.3402 111.519 90.4791 111.519 83.9787C111.52 75.9779 113.378 69.4873 115.679 69.4873Z" fill="#FC3314"/>
<path d="M195.749 97.8193H176.77V69.4873H182.519C183.045 69.4873 183.566 69.591 184.052 69.7926C184.537 69.9941 184.979 70.2895 185.35 70.6618C185.722 71.0342 186.016 71.4762 186.217 71.9625C186.418 72.4489 186.521 72.9701 186.52 73.4963V95.6248H188.686V90.8515C188.686 90.3529 188.784 89.8591 188.975 89.3983C189.165 88.9376 189.445 88.519 189.797 88.1664C190.149 87.8138 190.568 87.5342 191.028 87.3435C191.489 87.1528 191.982 87.0548 192.481 87.0551H195.749C194.929 87.0551 194.266 89.4666 194.266 92.4372C194.266 95.4078 194.929 97.8193 195.749 97.8193Z" fill="#FC3314"/>
<path d="M129.63 69.4873V95.6194H126.295C125.761 95.6195 125.233 95.5144 124.739 95.31C124.246 95.1056 123.798 94.8059 123.42 94.4281C123.043 94.0503 122.743 93.6017 122.539 93.108C122.334 92.6144 122.229 92.0853 122.23 91.551V90.0646C122.23 89.4442 122.476 88.8492 122.914 88.4106C123.353 87.9719 123.947 87.7254 124.567 87.7254H126.631V83.969C126.632 83.44 126.528 82.9161 126.326 82.4271C126.124 81.9382 125.828 81.4939 125.455 81.1196C125.081 80.7454 124.637 80.4485 124.149 80.246C123.66 80.0435 123.137 79.9393 122.608 79.9395H119.925V97.8149H139.381V69.4873H129.63Z" fill="#FC3314"/>
<path d="M160.311 81.686C162.166 81.686 165.426 81.686 165.426 78.3279V73.5449C165.426 72.7446 165.621 71.9564 165.996 71.2491C166.37 70.5418 166.912 69.937 167.574 69.4873H160.311V77.5269C160.311 78.0466 160.105 78.5451 159.738 78.9127C159.371 79.2803 158.873 79.4869 158.353 79.4872V69.4873H148.602V97.8193H158.353V83.0623C164.132 88.8459 161.184 97.8193 161.184 97.8193H167.574C167.574 85.9584 160.311 81.686 160.311 81.686Z" fill="#FC3314"/>
<path d="M219.674 68.0581C219.674 73.8536 218.742 79.8067 215.309 82.4923V74.6999C215.309 72.9387 214.61 71.2496 213.365 70.0042C212.121 68.7588 210.433 68.0592 208.672 68.0592H205.563V97.8192H215.313V96.811C215.315 95.2886 214.959 93.7871 214.275 92.4271C213.591 91.0672 212.598 89.8868 211.375 88.9808C210.445 88.2869 209.69 87.3851 209.17 86.3474C208.65 85.3096 208.38 84.1647 208.381 83.004V72.0866H209.82C210.296 72.0867 210.765 72.1978 211.19 72.4113C211.615 72.6247 211.984 72.9345 212.269 73.3159C212.553 73.6974 212.744 74.14 212.828 74.6085C212.911 75.077 212.884 75.5585 212.748 76.0146L211.729 79.4494C211.221 81.1556 210.964 82.9262 210.964 84.7062C210.964 85.3288 211.211 85.9259 211.651 86.3664C212.09 86.8068 212.687 87.0545 213.309 87.0551H217.334L222.371 76.2154C222.371 76.2154 223.072 90.4262 217.336 97.8192H224.55V68.0581H219.674Z" fill="#FC3314"/>
<path d="M253.116 68.1984V69.4862C253.116 69.4862 264.358 74.9168 257.647 91.3566C257.647 91.3566 256.519 71.2144 245.211 68.0581H242.104V97.8149H252.073C252.073 93.1012 250.351 88.55 247.231 85.0182C245.931 83.5445 245.213 81.6471 245.211 79.6815V72.4913C245.211 72.4913 247.287 78.6161 250.928 82.7935C254.252 86.6136 255.898 92.6951 255.794 97.7599V97.8775H263.51V68.1984H253.116Z" fill="#FC3314"/>
<path d="M77.4405 106.352L72.8816 110.919V135.154H87.8464L92.4043 130.592V106.352H77.4405ZM87.8777 120.75C86.2972 121.589 84.9748 122.843 84.0527 124.377C83.1305 125.912 82.6434 127.668 82.6435 129.459V129.766C82.6435 130.11 82.5758 130.451 82.4442 130.768C82.3127 131.086 82.12 131.375 81.8769 131.618C81.6339 131.861 81.3454 132.054 81.0279 132.186C80.7104 132.317 80.37 132.385 80.0263 132.385C79.6827 132.385 79.3423 132.317 79.0248 132.186C78.7073 132.054 78.4188 131.861 78.1758 131.618C77.9327 131.375 77.74 131.086 77.6084 130.768C77.4769 130.451 77.4092 130.11 77.4092 129.766V120.75C78.9535 120.134 80.2777 119.068 81.2108 117.691C82.1438 116.314 82.6429 114.689 82.6435 113.025V111.73C82.6435 111.036 82.9192 110.369 83.41 109.878C83.9008 109.387 84.5665 109.111 85.2606 109.111C85.9547 109.111 86.6204 109.387 87.1112 109.878C87.602 110.369 87.8777 111.036 87.8777 111.73V120.75Z" fill="#FC3314"/>
<path d="M115.198 106.584H101.116V111.55C101.115 112.278 101.361 112.984 101.813 113.555C102.265 114.125 102.896 114.526 103.604 114.691C104.312 114.857 105.056 114.778 105.714 114.468C106.371 114.157 106.905 113.633 107.227 112.98L108.55 110.304C108.903 109.591 109.448 108.99 110.124 108.571C110.8 108.151 111.58 107.929 112.376 107.929C112.839 107.93 113.297 108.021 113.724 108.199C114.151 108.377 114.54 108.637 114.866 108.965C115.193 109.292 115.452 109.681 115.629 110.109C115.805 110.537 115.896 110.996 115.895 111.459V111.578C115.895 112.223 115.768 112.862 115.521 113.459C115.274 114.055 114.912 114.597 114.456 115.053C114 115.51 113.458 115.872 112.862 116.119C112.266 116.366 111.627 116.493 110.982 116.492H101.116C110.577 125.96 101.116 135.152 101.116 135.152H109.725V124.045H115.198C116.559 124.044 117.864 123.502 118.825 122.539C119.787 121.575 120.326 120.269 120.326 118.907V111.72C120.326 110.359 119.786 109.053 118.824 108.09C117.863 107.127 116.559 106.585 115.198 106.584Z" fill="#FC3314"/>
<path d="M153.211 128.37V128.362" stroke="#1F1F1F" stroke-width="0.62623" stroke-miterlimit="10"/>
<path d="M174.79 115.069V110.839C174.79 110.281 174.68 109.727 174.466 109.211C174.253 108.694 173.94 108.225 173.545 107.83C173.15 107.435 172.681 107.121 172.165 106.908C171.649 106.694 171.096 106.584 170.537 106.584H155.669V135.729H165.507V123.379C170.145 129.883 166.94 135.725 166.94 135.725H174.79C174.79 124.037 168.346 120.259 166.198 119.324H170.537C171.096 119.324 171.649 119.214 172.165 119.001C172.681 118.787 173.15 118.473 173.545 118.078C173.94 117.683 174.253 117.214 174.466 116.697C174.68 116.181 174.79 115.628 174.79 115.069ZM170.139 111.736C169.369 112.091 168.345 112.849 168.345 114.398V116.94H166.043V108.961H169.533C169.864 108.961 170.186 109.075 170.444 109.283C170.702 109.491 170.881 109.781 170.952 110.105C171.023 110.429 170.981 110.767 170.833 111.064C170.685 111.361 170.44 111.598 170.139 111.736Z" fill="#FC3314"/>
<path d="M231.504 106.189V110.957L228.448 114.014C227.62 114.843 226.175 114.702 225.632 113.664C225.499 113.413 225.43 113.134 225.43 112.849V108.138H224.39V135.725H216.329V134.559C216.329 129.731 217.389 124.993 219.125 120.489C219.612 119.221 219.968 117.384 219.968 114.721V108.137H214.466V109.158C215.544 109.556 216.475 110.275 217.132 111.219C217.789 112.162 218.141 113.284 218.142 114.434V114.65C218.142 116.143 217.55 117.575 216.496 118.631C215.441 119.687 214.011 120.281 212.519 120.282V106.185L231.504 106.189Z" fill="#FC3314"/>
<path d="M254.339 106.189V108.339C255.551 108.339 256.723 108.768 257.649 109.551C258.575 110.333 259.194 111.418 259.398 112.613C259.601 113.809 259.375 115.037 258.759 116.082C258.144 117.127 257.179 117.92 256.036 118.321C255.632 118.45 255.243 118.622 254.876 118.834C253.232 119.851 249.461 123.166 249.461 132.166H246.913V129.359C246.913 126.843 247.677 124.386 249.105 122.314L251.362 119.038C252.209 117.807 252.703 116.368 252.792 114.876C252.88 113.385 252.56 111.897 251.866 110.575C251.172 109.252 250.13 108.144 248.852 107.37C247.575 106.597 246.11 106.187 244.617 106.185H243.061V135.725H256.255C256.083 135.015 255.997 134.287 255.998 133.556C255.997 131.557 256.629 129.609 257.803 127.991C258.978 126.374 260.634 125.17 262.534 124.553V106.189H254.339Z" fill="#FC3314"/>
<path d="M89.0649 144.403H84.369C84.369 147.55 85.3992 150.627 87.3896 153.067C88.4896 154.401 89.0846 156.08 89.0703 157.81V171.438H87.2364L81.2783 144.403H73.2834L78.3537 167.446C78.6838 168.946 79.5162 170.289 80.713 171.251C81.9098 172.212 83.3991 172.736 84.9343 172.735H92.3994V144.403H89.0649Z" fill="#FC3314"/>
<path d="M118.986 144.403H112.412V144.775C112.412 148.445 113.765 151.957 116.109 154.782C117.605 156.586 118.986 158.901 118.986 161.301V169.223C118.986 169.223 112.781 164.725 112.781 155.159H112.645C112.182 155.159 111.724 155.25 111.297 155.427C110.87 155.604 110.482 155.863 110.155 156.19C109.828 156.517 109.569 156.906 109.392 157.333C109.215 157.76 109.124 158.218 109.124 158.681C109.123 160.402 109.54 162.098 110.337 163.623C111.039 164.964 111.405 166.456 111.405 167.97V170.766H110.06C108.377 165.431 104.487 150.643 110.717 144.401H101.116C101.116 144.401 108.792 165.052 101.116 172.733H113.083V161.772L116.369 172.733H121.397V144.403H118.986Z" fill="#FC3314"/>
<path d="M141.716 160.166L147.351 172.822H142.241L142.223 172.778C143.469 172.089 144.614 165.291 139.436 165.291L137.652 169.294C138.059 168.374 139.436 168.667 139.436 169.67V172.822H129.596L132.703 165.66C134.058 162.535 134.718 159.154 134.638 155.749C134.382 155.177 133.966 154.693 133.439 154.356C132.912 154.018 132.298 153.843 131.672 153.85C130.536 153.871 129.628 152.896 129.628 151.758V149.599C129.629 148.243 130.168 146.943 131.127 145.985C132.086 145.027 133.385 144.489 134.74 144.49C134.74 155.784 137.024 155.976 138.308 155.19C138.788 154.883 139.164 154.438 139.387 153.912L141.706 148.706C143.216 145.323 139.828 144.49 139.828 144.49H148.69L141.716 160.166Z" fill="#FC3314"/>
<path d="M170.509 144.401H167.338V144.775C167.34 146.284 167.767 147.762 168.569 149.041C167.743 151.014 166.863 153.118 166.386 154.254C166.284 154.498 166.117 154.708 165.902 154.862C165.688 155.016 165.435 155.107 165.172 155.126C164.909 155.144 164.646 155.089 164.412 154.967C164.178 154.845 163.983 154.66 163.848 154.434C163.075 153.138 162.458 150.268 162.458 144.401C161.103 144.402 159.804 144.94 158.846 145.899C157.887 146.858 157.349 148.159 157.349 149.515V154.529C158.656 153.5 160.125 153.593 161.181 154.28C161.7 154.615 162.109 155.094 162.359 155.659C162.922 156.924 163.221 158.291 163.237 159.676C163.254 161.061 162.987 162.435 162.454 163.714L158.656 172.82H168.494L180.348 144.399L170.509 144.401Z" fill="#FC3314"/>
<path d="M189.666 168.346C193.585 155.559 205.564 155.058 205.564 155.058V162.748C205.565 163.095 205.474 163.436 205.299 163.735C205.124 164.035 204.872 164.282 204.569 164.452C204.266 164.621 203.924 164.706 203.577 164.698C203.23 164.69 202.892 164.589 202.597 164.406C202.01 164.043 201.352 163.811 200.668 163.725C199.984 163.638 199.289 163.699 198.63 163.904C197.971 164.108 197.364 164.451 196.849 164.91C196.334 165.369 195.923 165.933 195.644 166.564L192.884 172.815H186.519V163.41L197.882 146.801H193.998C193.998 148.104 193.587 149.374 192.823 150.429C192.059 151.484 190.981 152.271 189.744 152.676L186.315 153.8V144.49H205.569V150.467C202.488 151.313 200.003 152.518 198 153.921C189.86 159.589 189.666 168.346 189.666 168.346Z" fill="#FC3314"/>
</g>
<defs>
<clipPath id="clip0_1_536">
<rect width="191" height="142.154" fill="white" transform="translate(72.5 30.6665)"/>
</clipPath>
</defs>
</svg>
