<svg width="162" height="55" viewBox="0 0 162 55" fill="none" xmlns="http://www.w3.org/2000/svg">
<path d="M16.8111 21.8364C16.6918 20.7199 16.1889 19.8506 15.3026 19.2285C14.4247 18.6063 13.2827 18.2952 11.8764 18.2952C10.8878 18.2952 10.0398 18.4444 9.33239 18.7427C8.625 19.041 8.08381 19.4458 7.70881 19.9572C7.33381 20.4685 7.14205 21.0523 7.13352 21.7086C7.13352 22.254 7.2571 22.7271 7.50426 23.1276C7.75994 23.5282 8.10511 23.8691 8.53977 24.1503C8.97443 24.4231 9.45597 24.6532 9.98438 24.8407C10.5128 25.0282 11.0455 25.1859 11.5824 25.3137L14.0369 25.9273C15.0256 26.1574 15.9759 26.4685 16.8878 26.8606C17.8082 27.2526 18.6307 27.7469 19.3551 28.3435C20.0881 28.9401 20.6676 29.6603 21.0938 30.504C21.5199 31.3478 21.733 32.3364 21.733 33.4699C21.733 35.004 21.3409 36.3549 20.5568 37.5225C19.7727 38.6816 18.6392 39.5893 17.1562 40.2455C15.6818 40.8932 13.8963 41.2171 11.7997 41.2171C9.76278 41.2171 7.99432 40.9018 6.49432 40.2711C5.00284 39.6404 3.83523 38.7199 2.99148 37.5097C2.15625 36.2995 1.70455 34.8251 1.63636 33.0864H6.30256C6.37074 33.9984 6.65199 34.7569 7.14631 35.362C7.64063 35.9671 8.28409 36.4188 9.0767 36.7171C9.87784 37.0154 10.7727 37.1646 11.7614 37.1646C12.7926 37.1646 13.696 37.0111 14.4716 36.7043C15.2557 36.389 15.8693 35.9543 16.3125 35.4003C16.7557 34.8378 16.9815 34.1816 16.9901 33.4316C16.9815 32.7498 16.7813 32.1873 16.3892 31.7441C15.9972 31.2924 15.4474 30.9174 14.7401 30.6191C14.0412 30.3123 13.223 30.0396 12.2855 29.8009L9.30682 29.0339C7.15057 28.4799 5.44602 27.6404 4.19318 26.5154C2.94886 25.3819 2.3267 23.8776 2.3267 22.0026C2.3267 20.46 2.74432 19.1092 3.57955 17.9501C4.4233 16.791 5.5696 15.8918 7.01847 15.2526C8.46733 14.6049 10.108 14.281 11.9403 14.281C13.7983 14.281 15.4261 14.6049 16.8239 15.2526C18.2301 15.8918 19.3338 16.7824 20.1349 17.9245C20.9361 19.058 21.3494 20.362 21.375 21.8364H16.8111Z" fill="white"/>
<path d="M28.3708 14.639H33.0754V33.0481C33.0669 34.7356 32.7089 36.1887 32.0015 37.4074C31.2941 38.6177 30.3055 39.5509 29.0356 40.2072C27.7742 40.8549 26.3041 41.1788 24.6251 41.1788C23.091 41.1788 21.7103 40.906 20.4831 40.3606C19.2643 39.8066 18.297 38.9884 17.5811 37.906C16.8652 36.8236 16.5072 35.4771 16.5072 33.8663H21.2245C21.2331 34.5736 21.3865 35.183 21.6848 35.6944C21.9916 36.2057 22.4135 36.5978 22.9504 36.8705C23.4873 37.1432 24.1052 37.2796 24.8041 37.2796C25.5626 37.2796 26.2061 37.1219 26.7345 36.8066C27.2629 36.4827 27.6635 36.0055 27.9362 35.3748C28.2174 34.7441 28.3623 33.9685 28.3708 33.0481V14.639Z" fill="#FC3314"/>
<path d="M51.4545 40.8208H42.5824V14.639H51.6335C54.233 14.639 56.4659 15.1631 58.3324 16.2114C60.2074 17.2512 61.6477 18.7469 62.6534 20.6986C63.6591 22.6503 64.1619 24.9856 64.1619 27.7043C64.1619 30.4316 63.6548 32.7753 62.6406 34.7356C61.6349 36.6958 60.1818 38.2001 58.2812 39.2484C56.3892 40.2967 54.1136 40.8208 51.4545 40.8208ZM47.3253 36.7171H51.2244C53.0483 36.7171 54.5696 36.3847 55.7884 35.7199C57.0071 35.0467 57.9233 34.0452 58.5369 32.7157C59.1506 31.3776 59.4574 29.7072 59.4574 27.7043C59.4574 25.7015 59.1506 24.0396 58.5369 22.7185C57.9233 21.389 57.0156 20.3961 55.8139 19.7398C54.6207 19.0751 53.1378 18.7427 51.3651 18.7427H47.3253V36.7171ZM77.157 41.2043C75.1882 41.2043 73.4879 40.7952 72.0561 39.9771C70.6328 39.1503 69.5376 37.9827 68.7706 36.4742C68.0036 34.9572 67.62 33.1717 67.62 31.1177C67.62 29.0978 68.0036 27.3251 68.7706 25.7995C69.5462 24.2654 70.6286 23.0722 72.0178 22.2199C73.407 21.3592 75.0391 20.9288 76.9141 20.9288C78.1243 20.9288 79.2663 21.1248 80.3402 21.5168C81.4226 21.9003 82.3771 22.4969 83.2038 23.3066C84.0391 24.1163 84.6953 25.1475 85.1726 26.4003C85.6499 27.6447 85.8885 29.1276 85.8885 30.8492V32.2682H69.7933V29.1489H81.4524C81.4439 28.2626 81.2521 27.4742 80.8771 26.7839C80.5021 26.085 79.978 25.5353 79.3047 25.1347C78.6399 24.7342 77.8643 24.5339 76.978 24.5339C76.032 24.5339 75.201 24.764 74.4851 25.2242C73.7692 25.6759 73.2109 26.2725 72.8104 27.014C72.4183 27.7469 72.218 28.5523 72.2095 29.4302V32.1532C72.2095 33.2952 72.4183 34.2753 72.8359 35.0935C73.2536 35.9032 73.8374 36.5253 74.5874 36.96C75.3374 37.3861 76.2152 37.5992 77.2209 37.5992C77.8942 37.5992 78.5036 37.5055 79.049 37.318C79.5945 37.1219 80.0675 36.8364 80.468 36.4614C80.8686 36.0864 81.1712 35.6219 81.3757 35.068L85.6967 35.5538C85.424 36.6958 84.9041 37.693 84.1371 38.5452C83.3786 39.389 82.407 40.0452 81.2223 40.514C80.0376 40.9742 78.6825 41.2043 77.157 41.2043ZM105.324 26.3748L101.105 26.835C100.985 26.4089 100.777 26.0083 100.478 25.6333C100.189 25.2583 99.7965 24.9557 99.3022 24.7256C98.8079 24.4955 98.2028 24.3805 97.4869 24.3805C96.5238 24.3805 95.7141 24.5893 95.0579 25.0069C94.4102 25.4245 94.0906 25.9657 94.0991 26.6305C94.0906 27.2015 94.2994 27.666 94.7255 28.0239C95.1602 28.3819 95.8761 28.6759 96.8732 28.906L100.223 29.6219C102.081 30.0225 103.461 30.6574 104.365 31.5268C105.277 32.3961 105.737 33.5339 105.745 34.9401C105.737 36.1759 105.375 37.2668 104.659 38.2128C103.951 39.1503 102.967 39.8833 101.706 40.4117C100.444 40.9401 98.9954 41.2043 97.359 41.2043C94.9556 41.2043 93.021 40.7015 91.555 39.6958C90.0891 38.6816 89.2156 37.2711 88.9343 35.4643L93.4471 35.0296C93.6516 35.916 94.0863 36.585 94.7511 37.0367C95.4158 37.4884 96.2809 37.7143 97.3462 37.7143C98.4457 37.7143 99.3278 37.4884 99.9925 37.0367C100.666 36.585 101.002 36.0268 101.002 35.362C101.002 34.7995 100.785 34.335 100.35 33.9685C99.9244 33.6021 99.2596 33.3208 98.3562 33.1248L95.0067 32.4217C93.1232 32.0296 91.7298 31.3691 90.8263 30.4401C89.9229 29.5026 89.4755 28.318 89.484 26.8861C89.4755 25.6759 89.8036 24.6276 90.4684 23.7413C91.1417 22.8464 92.0749 22.156 93.2681 21.6702C94.4698 21.1759 95.8548 20.9288 97.4229 20.9288C99.7241 20.9288 101.535 21.4188 102.856 22.3989C104.186 23.379 105.008 24.7043 105.324 26.3748ZM109.561 40.8208V21.1844H114.189V40.8208H109.561ZM111.888 18.3975C111.155 18.3975 110.525 18.1546 109.996 17.6688C109.468 17.1745 109.203 16.5822 109.203 15.8918C109.203 15.193 109.468 14.6006 109.996 14.1148C110.525 13.6205 111.155 13.3734 111.888 13.3734C112.63 13.3734 113.26 13.6205 113.78 14.1148C114.309 14.6006 114.573 15.193 114.573 15.8918C114.573 16.5822 114.309 17.1745 113.78 17.6688C113.26 18.1546 112.63 18.3975 111.888 18.3975ZM127.488 48.5935C125.826 48.5935 124.398 48.3677 123.205 47.916C122.012 47.4728 121.053 46.8762 120.329 46.1262C119.604 45.3762 119.102 44.5452 118.82 43.6333L122.988 42.6234C123.175 43.0069 123.448 43.3861 123.806 43.7611C124.164 44.1447 124.646 44.46 125.251 44.7072C125.864 44.9628 126.636 45.0907 127.565 45.0907C128.877 45.0907 129.964 44.7711 130.825 44.1319C131.685 43.5012 132.116 42.4614 132.116 41.0126V37.2924H131.886C131.647 37.7697 131.298 38.2597 130.837 38.7626C130.386 39.2654 129.785 39.6873 129.035 40.0282C128.293 40.3691 127.36 40.5396 126.235 40.5396C124.727 40.5396 123.359 40.1859 122.131 39.4785C120.913 38.7626 119.941 37.6972 119.217 36.2824C118.501 34.8592 118.143 33.0779 118.143 30.9387C118.143 28.7824 118.501 26.9628 119.217 25.4799C119.941 23.9884 120.917 22.8592 122.144 22.0921C123.371 21.3165 124.739 20.9288 126.248 20.9288C127.398 20.9288 128.344 21.1248 129.086 21.5168C129.836 21.9003 130.433 22.3648 130.876 22.9103C131.319 23.4472 131.656 23.9543 131.886 24.4316H132.141V21.1844H136.705V41.1404C136.705 42.8194 136.305 44.2086 135.504 45.308C134.702 46.4074 133.607 47.2299 132.218 47.7753C130.829 48.3208 129.252 48.5935 127.488 48.5935ZM127.526 36.9089C128.506 36.9089 129.342 36.6702 130.032 36.193C130.722 35.7157 131.246 35.0296 131.604 34.1347C131.962 33.2398 132.141 32.166 132.141 30.9131C132.141 29.6773 131.962 28.5949 131.604 27.666C131.255 26.737 130.735 26.0168 130.045 25.5055C129.363 24.9856 128.523 24.7256 127.526 24.7256C126.495 24.7256 125.634 24.9941 124.944 25.531C124.254 26.068 123.734 26.8052 123.384 27.7427C123.035 28.6717 122.86 29.7285 122.86 30.9131C122.86 32.1148 123.035 33.1674 123.384 34.0708C123.742 34.9657 124.266 35.6646 124.957 36.1674C125.656 36.6617 126.512 36.9089 127.526 36.9089ZM146.076 29.3151V40.8208H141.448V21.1844H145.871V24.5211H146.102C146.553 23.4217 147.273 22.5481 148.262 21.9003C149.259 21.2526 150.491 20.9288 151.957 20.9288C153.312 20.9288 154.492 21.2185 155.498 21.7981C156.512 22.3776 157.296 23.2171 157.85 24.3165C158.413 25.416 158.69 26.7498 158.681 28.318V40.8208H154.053V29.0339C154.053 27.7214 153.712 26.6944 153.031 25.9529C152.357 25.2114 151.424 24.8407 150.231 24.8407C149.421 24.8407 148.701 25.0197 148.07 25.3776C147.448 25.7271 146.958 26.2342 146.6 26.8989C146.251 27.5637 146.076 28.3691 146.076 29.3151Z" fill="#FC3314"/>
</svg>
